<?xml version="1.0" standalone="no"?>
<!DOCTYPE svg PUBLIC "-//W3C//DTD SVG 1.1//EN" "http://www.w3.org/Graphics/SVG/1.1/DTD/svg11.dtd" >
<!--
2013-9-30: Created.
-->
<svg>
<metadata>
Created by iconfont
</metadata>
<defs>

<font id="iconfont" horiz-adv-x="1024" >
  <font-face
    font-family="iconfont"
    font-weight="500"
    font-stretch="normal"
    units-per-em="1024"
    ascent="896"
    descent="-128"
  />
    <missing-glyph />
    
    <glyph glyph-name="huidingbu" unicode="&#58884;" d="M825.568 256.672l-287.392 289.28C531.808 552.352 523.488 555.424 515.2 555.36 514.08 555.456 513.12 556 512 556c-4.672 0-9.024-1.088-13.024-2.88-4.032-1.536-7.872-3.872-11.136-7.136l-259.328-258.88c-12.512-12.48-12.544-32.736-0.032-45.248 6.24-6.272 14.432-9.408 22.656-9.408 8.192 0 16.352 3.136 22.624 9.344L480 447.712 480-116c0-17.696 14.336-32 32-32s32 14.304 32 32L544 449.28l236.192-237.728c6.24-6.272 14.496-9.44 22.688-9.44s16.32 3.104 22.56 9.312C838.016 223.872 838.048 244.16 825.568 256.672zM864 620 160 620C142.336 620 128 634.336 128 652s14.336 32 32 32l704 0c17.696 0 32-14.336 32-32S881.696 620 864 620z"  horiz-adv-x="1024" />

    
    <glyph glyph-name="xiajiangb" unicode="&#59010;" d="M687.654602 239.212542 687.654602 239.212542 622.428042 239.392644 622.428042 643.711156 401.393903 643.711156 401.393903 240.003558 318.335209 240.232778 318.335209 240.232778 290.75506 240.308503 510.940878-43.711156 733.24494 239.086675Z"  horiz-adv-x="1024" />

    
    <glyph glyph-name="return" unicode="&#58905;" d="M511.348154 831.414029c-246.710938 0-446.708971-199.999057-446.708971-446.708971s199.999057-446.708971 446.708971-446.708971S958.057125 137.993097 958.057125 384.704035 758.059092 831.414029 511.348154 831.414029zM913.432789 384.704035c0-54.30072-10.624988-106.953917-31.580253-156.496264-20.24816-47.874357-49.246611-90.879823-86.187965-127.821177-36.942377-36.941354-79.94682-65.938782-127.821177-86.187965-49.542346-20.955264-102.195543-31.580253-156.496264-31.580253-54.30072 0-106.953917 10.624988-156.49524 31.580253-47.874357 20.24816-90.879823 49.246611-127.821177 86.187965-36.941354 36.942377-65.938782 79.94682-86.187965 127.821177-20.954241 49.542346-31.579229 102.195543-31.579229 156.496264s10.624988 106.953917 31.579229 156.49524c20.249183 47.874357 49.247634 90.879823 86.187965 127.821177 36.941354 36.941354 79.94682 65.938782 127.821177 86.187965 49.542346 20.954241 102.19452 31.579229 156.49524 31.579229 54.30072 0 106.953917-10.624988 156.496264-31.579229 47.874357-20.249183 90.879823-49.247634 127.821177-86.187965 36.941354-36.941354 65.938782-79.94682 86.187965-127.821177C902.8078 491.657952 913.432789 439.004755 913.432789 384.704035zM287.760866 608.291322l0-446.24439 446.24439 0L734.005256 608.291322 287.760866 608.291322zM704.255699 578.541765l0-74.258261L317.510424 504.283504l0 74.258261L704.255699 578.541765zM317.510424 191.79649 317.510424 489.409748l386.745275 0 0-297.612235L317.510424 191.797513zM450.638467 445.003376l0-30.245861 93.744058 0c-40.625256-53.836139-63.609737-106.675578-68.321038-157.078525l-0.665149-7.117095 31.973202 0 0.608867 5.827729c6.170536 59.108213 31.595602 113.437585 75.568093 161.480788l1.710968 1.868557 0 25.264407L450.638467 445.003376z"  horiz-adv-x="1024" />

    
    <glyph glyph-name="youhuima" unicode="&#58883;" d="M960-128c-35.3 0-64 28.7-64 64l0 320c0 35.3 28.7 64 64 64 35.3 0 64-28.7 64-64l0-320C1024-99.3 995.3-128 960-128zM896 448l-192 0c-70.7 0-128 57.3-128 128l0 192c0 70.7 57.3 128 128 128l192 0c70.7 0 128-57.3 128-128l0-192C1024 505.3 966.7 448 896 448zM896 768l-192 0 0-192 192 0L896 768zM320-128l-192 0c-70.7 0-128 57.3-128 128l0 192c0 70.7 57.3 128 128 128l192 0c70.7 0 128-57.3 128-128l0-192C448-70.7 390.7-128 320-128zM320 192l-192 0 0-192 192 0L320 192zM320 448l-192 0c-70.7 0-128 57.3-128 128l0 192c0 70.7 57.3 128 128 128l192 0c70.7 0 128-57.3 128-128l0-192C448 505.3 390.7 448 320 448zM320 768l-192 0 0-192 192 0L320 768zM704 320c35.3 0 64-28.7 64-64l0-320c0-35.3-28.7-64-64-64s-64 28.7-64 64l0 320C640 291.3 668.7 320 704 320z"  horiz-adv-x="1024" />

    
    <glyph glyph-name="vertical-copy" unicode="&#58626;" d="M480.278 896h63.274v-1024h-63.274v1024z"  horiz-adv-x="1024" />

    
    <glyph glyph-name="shimingrenzheng" unicode="&#58948;" d="M878.08-128H148.48C64-128 0-64 0 17.92V747.52C0 832 64 896 148.48 896h727.04c81.92 0 148.48-64 151.04-148.48v-727.04c0-84.48-64-148.48-148.48-148.48zM148.48 844.8C94.72 844.8 51.2 801.28 51.2 747.52v-729.6C51.2-35.84 94.72-76.8 148.48-76.8h729.6c53.76 0 97.28 43.52 97.28 97.28V747.52C972.8 803.84 929.28 844.8 875.52 844.8H148.48zM890.88 284.16c-10.24 10.24-25.6 10.24-35.84 0L665.6 92.16 581.12 179.2c-10.24 10.24-25.6 10.24-35.84 0s-10.24-25.6 0-35.84l102.4-104.96c2.56-2.56 2.56-2.56 5.12-2.56l2.56-2.56c2.56-2.56 7.68-2.56 10.24-2.56s7.68 0 10.24 2.56c0 0 2.56 0 2.56 2.56 2.56 0 5.12 2.56 5.12 2.56l209.92 212.48c7.68 7.68 7.68 23.04-2.56 33.28zM663.04 23.04c-5.12 0-7.68 0-12.8 2.56-2.56 0-2.56 2.56-2.56 2.56h-2.56c-2.56 0-2.56 2.56-5.12 2.56v2.56l-102.4 104.96c-5.12 5.12-10.24 15.36-10.24 23.04s2.56 17.92 10.24 23.04c12.8 12.8 33.28 12.8 46.08 0l79.36-81.92 186.88 186.88c5.12 5.12 15.36 10.24 23.04 10.24 7.68 0 17.92-2.56 23.04-10.24 12.8-12.8 12.8-33.28 0-46.08l-209.92-212.48c-2.56-2.56-5.12-2.56-5.12-5.12h-2.56s-2.56 0-2.56-2.56h-12.8z m-12.8 15.36s2.56 0 2.56-2.56c2.56 0 2.56-2.56 2.56-2.56 5.12-2.56 10.24-2.56 15.36 0l2.56 2.56c2.56 0 2.56 2.56 2.56 2.56l2.56 2.56 209.92 209.92c7.68 7.68 7.68 20.48 0 28.16-2.56 2.56-7.68 5.12-12.8 5.12s-10.24-2.56-12.8-5.12l-194.56-197.12-89.6 92.16c-7.68 7.68-20.48 7.68-28.16 0-2.56-2.56-5.12-7.68-5.12-12.8s2.56-10.24 5.12-12.8l99.84-110.08zM724.48 332.8c-28.16 25.6-61.44 48.64-97.28 61.44 46.08 35.84 74.24 94.72 74.24 153.6C701.44 655.36 614.4 742.4 506.88 742.4s-194.56-87.04-194.56-194.56c0-61.44 28.16-117.76 74.24-153.6-117.76-46.08-202.24-161.28-202.24-299.52 0-20.48 12.8-33.28 33.28-33.28s33.28 12.8 33.28 33.28c0 143.36 115.2 261.12 253.44 261.12 66.56 0 128-25.6 174.08-69.12 12.8-12.8 33.28-12.8 46.08 0 7.68 5.12 10.24 15.36 10.24 23.04 0 7.68-5.12 17.92-10.24 23.04zM512 417.28c-71.68 0-130.56 58.88-130.56 130.56s58.88 130.56 130.56 130.56 130.56-58.88 130.56-130.56-58.88-130.56-130.56-130.56z"  horiz-adv-x="1026" />

    
    <glyph glyph-name="huitu" unicode="&#58892;" d="M435.663 3.053c-113.497 74.16-224.906 197.449-278.081 307.732-25.227 52.319-27.306 63.771-30.57 168.389l-3.509 112.254 106.275 63.194c58.45 34.759 143.867 88.058 189.806 118.437l83.534 55.237 88.432-59.038c48.635-32.474 133.887-85.398 189.458-117.618l101.023-58.589v-92.158c0-57.555-4.926-108.741-13.119-136.308-18.374-61.878-90.044-165.185-171.425-247.094-70.406-70.865-173.476-150.375-194.935-150.375-6.53 0-36.63 16.172-66.884 35.939zM554.415 32.97c105.332 83.753 207.626 198.316 259.779 290.958 27.294 48.475 29.23 57.315 32.119 146.729l3.072 95.145-80.412 48.045c-44.225 26.422-122.302 77.401-173.501 113.276l-93.083 65.232-83.173-58.779c-45.743-32.329-122.832-83.212-171.306-113.073l-88.131-54.306v-83.509c0-94.578 9.846-130.236 57.744-209.145 56.706-93.418 243.239-272.043 284.091-272.043 7.267 0 31.027 14.156 52.794 31.466zM455.383 262.819c7.627 74.5 32.518 143.038 74.021 203.847l34.627 50.723h-81.748c-76.016 0-81.748 1.201-81.748 17.197 0 16.31 5.731 17.197 111.774 17.197 129.324 0 135.899-5.373 77.818-63.518-58.732-58.8-103.617-166.149-103.617-247.818 0-27.559-2.832-32.587-18.379-32.587-17.447 0-18.097 2.789-12.751 54.959zM466.864 26.291c-55.503 37.162-153.462 132.507-212.756 207.082-34.447 43.329-66.82 104.291-77.219 145.402-7.507 29.676-8.667 46.398-7.644 110.503l1.198 75.54 74.254 46.605c82.451 51.753 149.111 96.005 212.357 140.972 23.111 16.425 43.523 29.867 45.376 29.867 1.849 0 28.156-17.392 58.454-38.643 82.874-58.125 139.675-95.414 214.070-140.521l67.266-40.78-2.645-83.307c-1.759-55.197-4.911-90.787-9.338-105.482-12.939-42.89-70.708-126.247-143.564-207.14-66.1-73.392-165.499-157.242-186.396-157.242-4.293 0-19.327 7.719-33.413 17.149zM486.011 206.793c2.382 3.006 5.662 22.54 7.29 43.419 6.588 84.382 40.676 162.881 100.925 232.395 60.062 69.306 53.961 74.49-87.878 74.615-105.621 0.098-110.958-1.086-110.958-24.58 0-18.368 11.925-21.193 89.38-21.193h66.967l-23.47-35.070c-48.138-71.911-74.038-145.326-79.083-224.139-2.195-34.43-1.526-43.766 3.397-46.889 9.004-5.698 28.428-4.865 33.431 1.438z"  horiz-adv-x="1024" />

    
    <glyph glyph-name="quanguolianbao" unicode="&#58949;" d="M511.927 42.528h101.143v-51.090h-101.143zM907.066 664.403l-0.739 0.641-97.522 83.765c-4.413 3.769-10.005 5.843-15.747 5.843-3.191 0-6.313-0.627-9.273-1.868l-75.982-31.694-61.217-38.771c-7.849-5.053-12.116-13.955-11.134-23.232l7.697-75.792-71.439-49.575-83.957-10.022-67.206 36.882-41.555 81.861c-4.171 8.223-12.455 13.331-21.619 13.331-3.701 0-7.28-0.835-10.634-2.481l-89.873-44.293c-8.425-4.155-13.655-12.609-13.655-22.060v-33.922l-30.58-30.11h-34.493c-6.25 0-12.393-2.506-16.855-6.875l-45.517-44.29c-4.795-4.679-7.435-10.958-7.435-17.682s2.641-13.002 7.435-17.679l40.124-39.046 22.972-109.926c1.172-5.597 4.227-10.602 8.606-14.098l82.986-67.186c4.318-3.478 9.721-5.394 15.206-5.394h92.435v-56.58c0-13.54 10.894-24.557 24.287-24.557h102.114l46.331-31.857c3.807-2.666 8.537-4.261 13.637-4.261 0.004 0 0.012 0 0.016 0v0c4.439 0.004 8.597 1.209 12.167 3.303l62.543 36.095 86.458 32.877c4.325 1.635 8.14 4.574 11.028 8.486l54.359 75.406c3.055 4.286 4.673 9.282 4.673 14.448v74.389c0 6.567-2.675 12.976-7.339 17.58l-32.635 32.025 41.228 27.449c3.538 2.323 6.447 5.617 8.41 9.521l28.331 57.095 71.566 50.315c6.514 4.608 10.403 12.138 10.403 20.139v103.095c0 0.007 0 0.019 0 0.031 0 7.458-3.325 14.141-8.571 18.644zM867.082 554.427l-0.894 0.425-65.316-46.021c-3.345-2.382-6.051-5.539-7.827-9.135l-28.14-56.729-61.211-40.566c-6.181-4.113-10.133-10.733-10.839-18.162-0.71-7.447 1.93-14.717 7.244-19.946l46.973-46.172v-56.011l-45.424-63.050-83.090-31.95-52.869-30.209-40.018 27.529c-4.013 2.794-8.75 4.27-13.694 4.27h-85.349v56.579c0 13.54-10.898 24.557-24.295 24.557h-108.172l-69.583 56.292-22.675 108.746c-1.044 4.916-3.449 9.283-6.958 12.635l-27.347 26.677 24.355 19.678h30.644c6.298 0 12.48 2.538 16.959 6.964l44.953 44.29c4.577 4.533 7.227 10.825 7.293 17.295l-4.465 8.516 59.239 47.83 34.19-67.349c2.83-5.49 7.511-9.691 13.2-11.838l77.413-42.82c3.366-1.83 7.373-2.908 11.629-2.911 0.935 0 1.906 0.058 2.857 0.17l97.495 11.683c3.94 0.499 7.705 1.93 10.887 4.135l88.298 61.2c7.339 5.108 11.325 13.821 10.403 22.74l-7.645 75.148 44.789 28.731 58.503 24.078 78.485-67.415 0.001-79.883zM784.668 154.635h50.576v-51.087h-50.576z"  horiz-adv-x="1024" />

    
    <glyph glyph-name="shangsheng" unicode="&#59199;" d="M765.792 440.832L512.032 720l-253.76-279.168c-21.856-24.064-13.312-43.52 19.04-43.52H394.72V74.72c0-32.544 26.24-58.752 58.624-58.752h117.44a58.56 58.56 0 0 1 58.624 58.752V397.344h117.408c32.192 0 40.832 19.456 18.976 43.488z"  horiz-adv-x="1024" />

    
    <glyph glyph-name="icon" unicode="&#58907;" d="M994.023491 21.850661l-243.547883 243.547882a95.688614 95.688614 0 0 1-8.907185 7.380239 403.368228 403.368228 0 1 1-118.338313-118.338313 79.1467 79.1467 0 0 1 7.125748-8.907185l244.311356-243.0389A84.745502 84.745502 0 1 1 994.023491 21.850661m-589.655637 194.43112a275.613748 275.613748 0 1 0 275.868239 275.868239 276.12273 276.12273 0 0 0-275.868239-275.868239"  horiz-adv-x="1030" />

    
    <glyph glyph-name="weibo" unicode="&#58913;" d="M759.633 401.876c-39.904 7.744-20.512 29.216-20.512 29.216s39.04 64.352-7.712 111.136c-57.952 57.92-198.784-7.392-198.784-7.392-53.792-16.672-39.552 7.616-31.936 48.992 0 48.736-16.704 131.232-160 82.496C197.553 617.332 74.641 445.716 74.641 445.716-10.831 331.668 0.497 243.508 0.497 243.508c21.344-194.592 228.128-248.032 388.928-260.672 169.216-13.28 397.568 58.304 466.816 205.408 69.248 147.36-56.576 205.664-96.608 213.632z m-357.664-364.16C234.001 29.844 98.225 114.1 98.225 226.196c0 112.192 135.776 202.208 303.744 209.952 168.096 7.744 304.128-61.504 304.128-173.504 0-112.096-136.032-217.28-304.128-224.928z m-33.504 324.512c-168.928-19.776-149.408-178.016-149.408-178.016s-1.728-50.112 45.28-75.616c98.848-53.536 200.64-21.12 252.064 45.28 51.456 66.4 21.248 228-147.936 208.352z m-42.592-222.112c-31.552-3.712-56.96 14.496-56.96 40.896 0 26.272 22.592 53.792 54.144 57.056 36.256 3.456 59.808-17.408 59.808-43.808-0.032-26.272-25.568-50.56-56.992-54.144z m99.584 84.864c-10.688-8-23.84-6.88-29.472 2.688-5.888 9.344-3.68 24.32 7.136 32.192 12.512 9.312 25.536 6.624 31.168-2.72 5.632-9.568 1.6-23.936-8.832-32.16z m416.448 245.408c13.632 0 25.184 10.08 27.136 23.2 0.256 0.992 0.352 1.856 0.352 2.944 20.64 185.504-152 153.568-152 153.568-15.328 0-27.616-12.416-27.616-27.872 0-15.232 12.288-27.616 27.616-27.616 124 27.392 96.64-96.608 96.64-96.608 0-15.328 12.48-27.616 27.872-27.616z m-20.128 323.808c-59.68 13.984-121.056 1.92-138.272-1.376-1.344-0.128-2.592-1.376-3.808-1.632-0.608-0.128-0.96-0.736-0.96-0.736-16.96-4.8-29.344-20.512-29.344-39.04 0-22.08 17.92-40.256 40.256-40.256 0 0 21.728 2.912 36.448 8.672 14.624 5.888 138.24 4.384 199.648-98.752 33.504-75.264 14.72-125.632 12.384-133.728 0 0-7.968-19.552-7.968-38.816 0-22.24 17.92-36.192 40.128-36.192 18.56 0 34.144 2.528 38.72 33.92h0.256c65.92 219.776-80.672 323.008-187.488 347.936z"  horiz-adv-x="1026" />

    
    <glyph glyph-name="toutiao-s" unicode="&#58902;" d="M5.04597333 686.2122666600001l0-631.5744 1014.78506667 57.03658667L1019.8304 738.19839999 5.04597333 686.2122666600001ZM226.704 563.2885333300001l58.84202667-74.00224-80.68458667-4.693568-58.66186667 74.18773333L226.704 563.2885333300001ZM226.704 470.33279999l58.84202667-74.00768-80.50442667-4.33009066-58.84202667 74.18773333L226.704 470.33279999ZM252.15466667 189.11253333000002l-135.73866667-8.12750934 0 48.01514667 80.50442667 4.693568 65.70229333 86.6432-148.19306667-8.48552533 0 48.01408 213.53706667 12.63552 0.35802027 211.00586666 72.74154666 4.33554134 0-210.82666667 89.71146667 4.508 0-48.00970667-135.91786667-7.94085333L252.15466667 189.11253333000002ZM420.01813333 199.03679998999996l-58.30282666 113.71626667 81.04693333 3.61186133 58.66186667-112.99413333L420.01813333 199.03679998999996ZM607.0208 630.6197333299999l58.30282667-27.98133334 240.9696 13.35808 0-83.21034666-118.9536-59.02538667 89.71253333-33.392 35.1952 2.346784 0-48.55765333-52.34410667-3.249472-137.72266666 50.72L588.2464 375.92853333000005l-52.5232-3.06827734 0 48.19413334 34.47264 1.98766933 87.36576 42.77909333-51.26357333 19.49578667 29.96458666 44.03872 85.74048-31.94570667 111.728 55.05333334 0 11.54944-199.45173333-10.82688-40.25333333-63.71893334-61.91573334 22.2016L607.0208 630.6197333299999ZM609.008 208.78719998999998l-73.64853333-3.791968 49.28021333 94.40064 72.9216 4.15544534L609.008 208.78719998999998ZM687.52533333 213.65866666l0 105.95445333-152.16533333-8.843552 0 48.55221334 151.98506667 7.941952 0.1801024 24.36832 72.74154666 4.33554133 0-24.36832 151.9808 8.66344533 0-48.19413333-151.8016-8.48552533 0.54248854-106.13354667L687.52533333 213.65866666ZM853.40586667 223.22453332999999l-53.96832 88.62645333 73.27968 4.149984 53.43018666-88.80437333L853.40586667 223.22453332999999Z"  horiz-adv-x="1024" />

    
    <glyph glyph-name="jxsz" unicode="&#59031;" d="M727.6 100.20000000000005c-9.6-8-21.6-13.6-34-13.6-2.8 0-6.8 0-9.6 1.2l-35.2 6.8c-1.2 0-4 0-5.6-1.2l-12.2-13.6-6.8-6.8-6.8-8c-9.6-10.8-23-16.4-38-16.4-9.6 0-17.6 2.8-24.4 6.8l-29.8 16.4s-1.2 0-1.2 1.2c-1.2 0-2.8 1.2-4 1.2-1.2 0-2.8 0-4-1.2 0 0-1.2 0-1.2-1.2l-29.8-16.4c-6.8-4-16.4-6.8-24.4-6.8-14.8 0-28.4 5.6-38 16.4l-6.8 8c-2.8 1.2-4 4-6.8 6.8l-12.2 13.6c-1.2 1.2-4 1.2-5.6 1.2l-35.2-6.8c-2.8 0-6.8-1.2-9.6-1.2-12.2 0-24.4 5.6-33.8 13.6L257.2-68c-2.8-10.8 2.8-16.4 12.2-12.2l104.4 36.6c9.6 4 24.4 0 31.2-8l55.6-66.6c6.8-8 14.8-6.8 17.6 4l40.6 179 43.4-179c2.8-10.8 10.8-12.2 17.6-4l55.6 66.6c6.8 8 20.4 12.2 31.2 8l104.4-36.6c9.6-4 16.4 1.2 12.2 12.2l-55.6 168.2z m0 0M905.2 466.4c-5.6 9.6-5.6 24.4 0 33.8l17.6 31.2c5.6 9.6 2.8 23-5.6 29.8l-25.6 25.8c-8 6.8-12.2 21.6-10.8 32.6l6.8 35.2c2.8 10.8-4 23-13.6 27.2l-32.6 14.8c-9.6 4-19 16.4-20.4 27.2l-4 35.2c-1.2 10.8-10.8 20.4-21.6 21.6l-35.2 4c-10.8 1.2-23.2 10.8-27.2 20.4l-14.8 32.6c-4 8-13.6 14.8-23 14.8h-4l-36.6-6.8h-5.6c-9.6 0-20.4 4-27.2 10.8L597.6 882.4c-4 5.6-12.2 8-19 8-4 0-8-1.2-12.2-2.8L535.2 870c-4-2.8-10.8-4-17.6-4-6.8 0-12.2 1.2-17.6 4l-31.2 17.6c-4 1.2-8 2.8-12.2 2.8-6.8 0-13.6-2.8-19-8l-24.4-25.8c-6.8-6.8-17.6-10.8-27.2-10.8h-5.6l-35.2 6.8h-4c-9.6 0-19-5.6-23.2-14.8l-14.8-32.6c-4-9.6-16.4-19-27.2-20.4l-35.2-4c-10.8-1.2-20.4-10.8-21.6-21.6l-4-35.2c-1.2-10.8-10.8-23-20.4-27.2L163.8 682c-9.6-4-16.4-16.4-13.6-27.2l6.8-35.2c2.8-10.8-2.8-25.8-10.8-32.6l-25.8-24.4c-8-6.8-9.6-20.4-5.6-29.8l17.6-31.2c5.6-9.6 5.6-24.4 0-34l-17.6-31.2c-5.6-9.6-2.8-23.2 5.6-29.8l25.8-24.4c8-6.8 12.2-21.6 10.8-32.6l-6.8-35.2c-2.8-10.8 4-23 13.6-27.2l32.6-14.8c9.6-4 19-16.4 20.4-27.2l4-38c1.2-10.8 10.8-20.4 21.6-21.6l35.2-4c10.8-1.2 23.2-10.8 27.2-20.4l14.8-32.6c1.2-2.8 2.8-4 5.6-6.8 5.6-4 12.2-8 17.6-8h4l35.2 6.8h5.6c9.6 0 20.4-4 27.2-10.8l24.4-25.8c4-5.6 12.2-8 19-8 4 0 8 1.2 12.2 2.8l31.2 17.6c1.2 0 1.2 0 2.8 1.2 4 1.2 9.6 2.8 14.8 2.8 5.6 0 10.8-1.2 14.8-2.8 1.2 0 1.2 0 2.8-1.2l31-18c4-1.2 8-2.8 12.2-2.8 6.8 0 13.6 2.8 19 8l24.4 25.8c6.8 6.8 17.6 10.8 27.2 10.8h5.6l35.2-6.8h4c6.8 0 13.6 2.8 17.6 8 1.2 1.2 4 4 5.6 6.8l14.8 32.6c4 9.6 16.4 19 27.2 20.4l35.2 4c10.8 1.2 20.4 10.8 21.6 21.6l4 35.2c1.2 10.8 10.8 23.2 20.4 27.2l32.6 14.8c9.6 4 16.4 16.4 13.6 27.2l-6.8 35.2c-2.8 10.8 2.8 25.8 10.8 32.6l25.8 24.4c8 6.8 9.6 20.4 5.6 29.8l-18.2 33.2zM682.8 210.20000000000005c-39.4-24.4-85.4-39.4-132.8-44.8-10.8-1.2-20.4-1.2-31.2-1.2s-20.4 0-31.2 1.2c-48.8 4-93.6 20.4-132.8 44.8-93.6 55.6-156 157.2-156 274 0 176.2 143.6 320 320 320 176.2 0 320-143.6 320-320-0.2-116.8-62.4-218.6-156-274z m0 0M518.8 770.2c-158.6 0-287.6-128.8-287.6-287.6 0-101.8 53-191.2 132.8-241.4 33.8-21.6 73.4-36.6 115.2-42 12.2-1.2 25.8-2.8 39.4-2.8 13.6 0 25.8 1.2 39.4 2.8 42 5.6 80 20.4 115.2 42 80 51.4 132.8 139.6 132.8 241.4 0.2 158.8-128.6 287.6-287.2 287.6z m88-313.2l20.4-113-106.6 53.2-106.8-53.2 20.4 113-86.2 79.8 119.2 16.6 53.4 102.6 53.4-102.6 119.2-16.6-86.4-79.8z m0 0"  horiz-adv-x="1024" />

    
    <glyph glyph-name="location" unicode="&#58625;" d="M512.103132 575.879021a106.221743 106.221743 0 1 0-75.507022-31.354611A106.221743 106.221743 0 0 0 512.103132 575.879021m0 63.989002a170.850635 170.850635 0 1 1 120.939214-49.911422A169.570855 169.570855 0 0 1 512.103132 639.868023zM805.172761 771.685367a407.609942 407.609942 0 0 1-586.139257 0 431.285873 431.285873 0 0 1 0-599.576948L512.103132-128l293.069629 300.108419a431.285873 431.285873 0 0 1 0 599.576948z m-44.152411-557.344207l-248.917218-255.956007-248.917217 255.956007a365.377201 365.377201 0 0 0 0 508.712565 346.82039 346.82039 0 0 0 497.834435 0 365.377201 365.377201 0 0 0 0-508.712565z"  horiz-adv-x="1024" />

    
    <glyph glyph-name="plus-select-up" unicode="&#58628;" d="M763.55 507.566l-251.524-251.524-251.523 251.524 503.046-1e-8zM763.55 507.566z"  horiz-adv-x="1024" />

    
    <glyph glyph-name="anzhuo" unicode="&#58887;" d="M211.6 540.4c-28 0-50.6-22.6-50.6-50.6V278c0-27.9 22.7-50.6 50.6-50.6 28 0 50.6 22.6 50.6 50.6V489.8c0.1 28-22.6 50.6-50.6 50.6z m70.3-337.7c0-29.8 24.2-54 54.1-54h36.9v-112c0-27.9 22.7-50.6 50.6-50.6 28 0 50.6 22.6 50.6 50.6v112h68.4v-112c0-27.9 22.7-50.6 50.6-50.6 28 0 50.6 22.6 50.6 50.6v112h36.9c29.8 0 54.1 24.2 54.1 54V530.9H281.9v-328.2z m338.3 527.9l35.4 64.3c1.9 3.4 0.6 7.7-2.8 9.5-3.4 1.8-7.7 0.6-9.5-2.8l-35.8-65c-30 13.3-63.6 20.7-99.1 20.7-35.5 0-69.1-7.4-99.1-20.6l-35.8 64.9c-1.8 3.4-6.2 4.6-9.5 2.8-3.4-1.8-4.7-6.2-2.8-9.5l35.4-64.3c-69.4-35.8-116.4-104-116.4-182.2h456.4c0 78.3-47 146.4-116.4 182.2zM404.5 631c-10.6 0-19.1 8.6-19.1 19.1 0 10.6 8.6 19.1 19.1 19.1 10.6 0 19.1-8.6 19.1-19.1 0-10.6-8.6-19.1-19.1-19.1z m207.8 0c-10.6 0-19.1 8.6-19.1 19.1 0 10.6 8.6 19.1 19.1 19.1 10.6 0 19.1-8.6 19.1-19.1-0.1-10.6-8.6-19.1-19.1-19.1z m192.8-90.6c-28 0-50.6-22.6-50.6-50.6V278c0-27.9 22.7-50.6 50.6-50.6 28 0 50.6 22.6 50.6 50.6V489.8c0 28-22.6 50.6-50.6 50.6z m0 0"  horiz-adv-x="1024" />

    
    <glyph glyph-name="yijianfankui" unicode="&#58881;" d="M802.1 439.1v-359.4H221.5V687.9h387v27.6h-387c-15.3 0-27.6-12.4-27.6-27.6v-608.2c0-15.3 12.4-27.6 27.6-27.6H802c15.3 0 27.6 12.4 27.6 27.6V439.1h-27.5zM409.4 301c5.4-5.4 14.1-5.4 19.5 0l391 391c5.4 5.4 5.4 14.1 0 19.5s-14.1 5.4-19.5 0l-391-391c-5.4-5.4-5.4-14.1 0-19.5z"  horiz-adv-x="1024" />

    
    <glyph glyph-name="gouwuche" unicode="&#58885;" d="M347.136 112.63999999999999q19.456 0 36.864-7.168t30.72-19.968 20.48-30.208 7.168-36.864-7.168-36.864-20.48-30.208-30.72-20.48-36.864-7.68q-20.48 0-37.376 7.68t-30.208 20.48-20.48 30.208-7.168 36.864 7.168 36.864 20.48 30.208 30.208 19.968 37.376 7.168zM773.12 110.59199999999998q19.456 0 37.376-7.168t30.72-19.968 20.48-30.208 7.68-36.864-7.68-36.864-20.48-30.208-30.72-20.48-37.376-7.68-36.864 7.68-30.208 20.48-20.48 30.208-7.68 36.864 7.68 36.864 20.48 30.208 30.208 19.968 36.864 7.168zM945.152 692.2239999999999q28.672 0 44.544-7.68t22.528-18.944 6.144-24.064-3.584-22.016-12.8-37.888-22.016-62.976-24.064-68.096-17.92-53.248q-13.312-40.96-33.792-56.832t-50.176-15.872l-34.816 0-66.56 0-87.04 0-95.232 0-253.952 0 15.36-92.16 516.096 0q49.152 0 49.152-41.984 0-20.48-9.728-35.328t-38.4-14.848l-49.152 0-95.232 0-117.76 0-119.808 0-98.304 0-56.32 0q-20.48 0-34.304 9.216t-23.04 24.064-14.848 32.256-8.704 32.768q-1.024 6.144-5.632 29.696t-11.264 58.88-14.848 78.848-16.384 87.552q-19.456 103.424-44.032 230.4l-76.8 0q-15.36 0-25.6 7.68t-16.896 18.432-9.216 23.04-2.56 22.528q0 20.48 13.824 33.792t37.376 13.312l22.528 0 20.48 0 25.6 0 34.816 0q20.48 0 32.768-6.144t19.456-15.36 10.24-19.456 5.12-17.408q2.048-8.192 4.096-23.04t4.096-30.208q3.072-18.432 6.144-38.912l700.416 0z"  horiz-adv-x="1024" />

    
    <glyph glyph-name="weixin" unicode="&#58886;" d="M998.803 266.465c0 135.665-135.292 246.139-287.496 246.139-161.255 0-287.88-110.474-287.88-246.139 0-136.012 126.625-246.091 287.88-246.091 33.729 0 67.854 8.621 101.568 16.862l92.932-51.072-25.433 84.896c67.813 51.091 118.429 119.101 118.429 195.405z m-380.882 42.471c-16.822 0-33.685 16.887-33.685 33.84 0 16.846 16.862 33.773 33.685 33.773 25.519 0 42.405-16.928 42.405-33.773 0-16.954-16.886-33.84-42.405-33.84z m186.343 0c-16.842 0-33.675 16.887-33.675 33.84 0 16.846 16.833 33.773 33.675 33.773 25.473 0 42.365-16.928 42.365-33.773 0-16.954-17.303-33.84-42.365-33.84z m-120.889 233.65c11.085 0 22.215-0.777 33.284-1.913-29.823 139.72-178.714 243.3-348.735 243.3-189.883 0-345.684-129.709-345.684-294.727 0-95.194 51.698-173.457 138.203-234.12l-34.445-104.352 120.953 60.989c43.251-8.432 78.087-17.282 120.973-17.282 10.705 0 21.463 0.39 32.188 1.491-6.894 23.066-10.724 47.567-10.724 72.555-0.021 151.245 129.784 274.059 293.987 274.059z m-186.076 94.035c26.024 0 43.231-17.28 43.231-43.387 0-26.066-17.232-43.341-43.231-43.341-26.044 0-52.043 17.275-52.043 43.341 0.39 26.132 26.368 43.387 52.043 43.387zM255.372 549.93c-26.039 0-52.042 17.258-52.042 43.347 0 26.11 26.023 43.364 52.042 43.364 26.064 0 43.301-17.275 43.301-43.364-0.024-25.724-17.236-43.347-43.301-43.347z"  horiz-adv-x="1024" />

    
    <glyph glyph-name="kefu" unicode="&#58896;" d="M799 512.75h-64a223.5 223.5 0 1 1-447 0h-64a287.5 287.5 0 0 0 575 0zM576 32v64c63.16 0 103.29 10.71 126.29 33.71S736 192.84 736 256h64c0-81.25-16.67-135.75-52.46-171.54S657.25 32 576 32zM256 512a64.07 64.07 0 0 0 64-64v-128a64 64 0 0 0-128 0V448a64.07 64.07 0 0 0 64 64m0 64a128 128 0 0 1-128-128v-128a128 128 0 0 1 256 0V448a128 128 0 0 1-128 128zM768.5 511.5a64.07 64.07 0 0 0 64-64v-128a64 64 0 0 0-128 0v128a64.07 64.07 0 0 0 64 64m0 64a128 128 0 0 1-128-128v-128a128 128 0 0 1 256 0v128a128 128 0 0 1-128 128zM576 128a64 64 0 0 1-64-64 64 64 0 0 1 128 0 64 64 0 0 1-64 64z"  horiz-adv-x="1024" />

    
    <glyph glyph-name="huawei" unicode="&#59655;" d="M867.24087 633.71648c-25.82912-31.08352-49.9392-63.42528-73.1392-96.44544a2257.74464 2257.74464 0 0 1-37.82016-55.65312 2888.096 2888.096 0 0 1-37.71392-59.07712c-12.57088-20.22784-24.79616-40.8-36.91008-61.36448a3038.83776 3038.83776 0 0 1-35.30752-62.50624c-5.71392-10.39872-11.31648-20.91264-16.80128-31.31264a2024.22144 2024.22144 0 0 1-16.1088-31.19616c-2.62784-5.1456-5.2608-10.28352-7.77216-15.54048-2.51648-5.14432-5.1456-10.28864-7.54432-15.42784a981.81632 981.81632 0 0 1-7.31008-15.31136c-1.25952-2.51648-2.40384-5.1456-3.65952-7.6608-1.14432-2.5088-2.28096-5.02784-3.54304-7.53792-0.5696-1.2608-1.14432-2.4-1.25568-3.77216 0-1.02528 0.22912-2.1696 1.02784-2.97344 0.68608-0.68096 1.8304-1.02528 2.85568-1.02528 1.48992 0 2.7456 0.91392 4.11776 1.48224 32.224 16.57088 64.44672 33.2544 96.32896 50.39616 29.94176 16.11392 59.53664 32.67968 88.45056 50.39616 26.05312 15.87968 51.53536 32.79104 75.76192 51.53408 20.91264 16.11648 40.79232 33.59616 58.05184 53.71136 14.74176 17.024 27.65312 35.87712 35.53792 57.02016 7.3152 19.42784 10.4 40.79872 8.2304 61.48224-2.51648 23.7632-11.8848 46.38976-24.11648 67.07456-16.56576 27.7696-38.27584 51.65056-61.36064 73.70752M586.88759 769.73312c-21.48224-35.88352-33.2544-77.13408-41.47968-118.5024-4.80384-24.22784-8.34176-48.44928-10.9696-72.7936-2.85568-25.82272-4.68608-51.87456-5.8304-77.81376-1.14432-26.62784-1.60128-53.25312-1.60128-79.87968 0.11648-26.28096 0.68608-52.56704 1.8304-78.84928 0.56832-12.68096 1.14432-25.37088 1.8304-38.05312 0.68608-12.22528 1.48352-24.4544 2.28096-36.68096 0.45824-5.94304 0.80384-11.76704 1.2608-17.71008 0.45312-5.71392 0.91008-11.54432 1.36704-17.25696 0.45696-5.59616 0.9152-11.08096 1.48992-16.68352 0.22912-2.7456 0.45184-5.4848 0.67968-8.11264 0.22912-2.62912 0.57472-5.25568 0.80384-8.00128 0.11136-1.36704 0.22912-2.74048 0.9152-3.88352 0.56832-0.9152 1.36704-1.71264 2.4-2.05696 1.02656-0.2304 2.1696 0 3.0848 0.45568 1.1392 0.68608 1.94176 1.94176 2.62912 3.0848 39.3088 59.0784 78.16064 118.5024 112.78208 180.43776 16.57216 29.48352 32.11136 59.53664 45.82656 90.50496 12.22528 27.7696 22.96576 56.22016 30.62784 85.5936 6.51136 25.024 10.74176 50.73536 9.47968 76.7872-1.1392 22.39744-6.39488 45.14048-17.82144 64.22272-11.8848 20.1152-30.51648 36.11392-51.19488 47.76832-27.7696 15.65696-59.19488 22.96576-90.39104 27.42272m428.10496-397.01376c-30.85056-16.57216-61.58848-33.1456-92.33408-50.05568-16.33792-9.02912-32.56192-18.05568-48.90624-27.07712-16.8-9.48608-33.59488-18.97216-50.39616-28.6848-17.3696-9.9456-34.51008-19.99872-51.76192-30.17088-17.71648-10.51264-35.3088-21.02528-52.90752-31.76448l-26.74432-16.4544c-9.02784-5.60256-18.05568-11.19872-26.96576-16.91264-4.5696-2.85568-9.02912-5.71392-13.59872-8.5696-4.56832-2.85696-9.02784-5.83168-13.59744-8.68736-4.5696-2.96832-9.1456-5.82656-13.59744-8.8l-6.85696-4.45312c-1.14432-0.80384-2.28736-1.48992-3.43168-2.28736-1.1392-0.68608-2.28224-1.48352-3.42656-2.28736-1.02656-0.68096-2.17088-1.36704-2.85696-2.4-0.45696-0.79744-0.68608-1.94176-0.34048-2.85568a3.98976 3.98976 0 0 1 1.94176-2.17088c1.1456-0.56832 2.4-0.45696 3.6544-0.45696h213.92256c36.45184 0 74.38848 7.5456 106.3872 25.82912 26.28096 15.08224 48.45056 37.36704 63.87712 63.42016 14.39488 24.22656 22.96576 51.54048 25.82272 79.76192 2.51776 25.36704 0.45824 51.30752-7.88352 75.07712M931.20119 94.2848a9399.26656 9399.26656 0 0 1-81.24672 2.7456 11130.2656 11130.2656 0 0 1-87.4176 2.39872l-42.28352 1.02784c-13.14048 0.34688-26.16832 0.57472-39.3088 0.9152l-18.05568 0.34688c-5.59616 0.11136-11.19872 0.22912-16.68352 0.34048-5.02656 0.11776-10.17088 0.22912-15.19872 0.22912-2.28224 0-4.68096 0.11264-6.96832 0.11264-2.17088 0-4.2304 0-6.51136 0.11776-1.1456 0-2.4 0.11008-3.43296-0.45824-0.79744-0.45696-1.36576-1.2544-1.71264-2.1696-0.22912-0.91648-0.11136-1.94304 0.34688-2.85696 0.56832-0.9152 1.48352-1.6 2.28096-2.28736 38.85312-27.9936 78.61888-55.53536 121.92896-75.98976 14.40128-6.74176 29.2544-12.8 44.68224-16.56576 11.99616-2.97472 24.45568-4.576 36.79872-3.54432 10.74176 0.91136 21.36448 3.76704 31.0784 8.45312 10.17216 4.9152 19.31136 11.77216 27.65312 19.42912 9.71392 8.91136 18.2848 18.96448 26.39744 29.36448 9.82528 12.34176 18.8544 25.25184 27.65312 38.39104M156.68983 633.71648c25.82272-31.08352 49.9392-63.42528 73.13408-96.44544a2283.25376 2283.25376 0 0 0 37.82528-55.65312c12.8-19.54048 25.37088-39.19872 37.70624-59.07712 12.57216-20.22784 24.80256-40.8 36.91648-61.36448a3063.03744 3063.03744 0 0 0 35.3088-62.50624c5.71264-10.39872 11.31008-20.91264 16.79488-31.31264a2024.62976 2024.62976 0 0 0 16.11392-31.19616c2.62784-5.1456 5.25696-10.28352 7.77216-15.54048 2.51136-5.14432 5.14048-10.28864 7.5392-15.42784 2.5152-5.1456 4.9152-10.17216 7.3152-15.31136 1.2544-2.51648 2.4-5.1456 3.65312-7.6608 1.14432-2.5088 2.28864-5.02784 3.54432-7.53792 0.57472-1.2608 1.1456-2.4 1.2608-3.77216 0-1.02528-0.22784-2.1696-1.03296-2.97344-0.68608-0.68096-1.824-1.02528-2.85696-1.02528-1.48352 0-2.7392 0.91392-4.11136 1.48224-32.22272 16.57088-64.45184 33.2544-96.33408 50.39616-29.93536 16.11392-59.53536 32.67968-88.44416 50.39616-26.05696 15.87968-51.54048 32.79104-75.76192 51.53408-20.91264 16.11648-40.68096 33.59616-58.05184 53.71136-14.74176 17.024-27.65312 35.87712-35.53792 57.02016-7.3152 19.42784-10.4 40.79872-8.2304 61.48224 2.51648 23.7632 11.88608 46.38976 24.11008 67.07456 16.57344 27.7696 38.28352 51.65056 61.36704 73.70752M437.03799 769.73312c21.48736-35.88352 33.25568-77.13408 41.48608-118.5024 4.79744-24.22784 8.34176-48.44928 10.9696-72.7936 2.85696-25.82272 4.68096-51.87456 5.82528-77.81376 1.14304-26.62784 1.60128-53.25312 1.48352-79.87968-0.11136-26.28096-0.68096-52.56704-1.82528-78.84928-0.57344-12.68096-1.14304-25.37088-1.8304-38.05312-0.68608-12.22528-1.48352-24.4544-2.28608-36.68096-0.45312-5.94304-0.79872-11.76704-1.25568-17.71008-0.45824-5.71392-0.9152-11.54432-1.37216-17.25696-0.45312-5.59616-0.91008-11.08096-1.4848-16.68352-0.22784-2.7456-0.45696-5.4848-0.68608-8.11264-0.22912-2.62912-0.56832-5.25568-0.79744-8.00128-0.11648-1.36704-0.2304-2.74048-0.9152-3.88352-0.56832-0.9152-1.37216-1.71264-2.4-2.05696-1.02528-0.2304-2.1696 0-3.0848 0.45568-1.1456 0.68608-1.94176 1.94176-2.74048 3.0848-39.31392 59.0784-78.048 118.5024-112.78848 180.43776-16.57088 29.48352-32.11136 59.53664-45.82656 90.50496-12.224 27.7696-22.96576 56.22016-30.62144 85.5936-6.51776 25.024-10.74176 50.73536-9.48608 76.7872 1.14432 22.39744 6.4 45.14048 17.82784 64.22272 11.88352 20.1152 30.5088 36.11392 51.07456 47.76832 28.11264 15.65696 59.53792 22.96576 90.73408 27.42272M8.93303 372.6912c30.85568-16.56576 61.59488-33.13792 92.22144-50.05056 16.3392-9.02912 32.68096-18.05568 48.90752-27.08352 16.8-9.47968 33.59488-18.96576 50.39616-28.67968a6078.61376 6078.61376 0 0 0 51.7632-30.1696c17.71648-10.51264 35.31392-21.02528 52.91264-31.7632 8.91008-5.48608 17.9392-10.97088 26.73792-16.45568 9.02784-5.60256 18.05696-11.19872 26.96704-16.91264 4.5696-2.85568 9.02784-5.71392 13.59744-8.5696 4.57088-2.85696 9.02912-5.83168 13.59872-8.68736 4.57472-2.96832 9.1456-5.82528 13.59744-8.8l6.85824-4.45696c1.14432-0.79872 2.28864-1.4848 3.43296-2.28224 1.13664-0.68608 2.28096-1.48352 3.42528-2.28736 1.02656-0.68608 2.17088-1.36704 2.85696-2.4 0.45696-0.79744 0.68608-1.94176 0.34688-2.85568a4.02176 4.02176 0 0 0-1.94688-2.1696c-1.13792-0.5696-2.4-0.45696-3.65568-0.45696H197.02647c-36.45312 0-74.38976 7.54432-106.38336 25.82912-26.28608 15.08096-48.4544 37.36704-63.88352 63.41888C12.36471 242.08256 3.79383 269.39392 0.93687 297.61664c-2.39744 25.37088-0.3456 51.31136 7.99616 75.07456M92.70647 94.2848a9411.1616 9411.1616 0 0 0 81.25312 2.7456 11125.14816 11125.14816 0 0 0 87.4176 2.39872l42.2784 1.02784c13.1456 0.34688 26.16832 0.57472 39.31008 0.9152l18.05568 0.34688c5.60128 0.11136 11.19872 0.22912 16.68352 0.34048 5.02656 0.11776 10.17216 0.22912 15.19872 0.22912 2.28864 0 4.68736 0.11264 6.96832 0.11264 2.17728 0 4.34688 0 6.51776 0.11776 1.14432 0 2.4 0.11008 3.42528-0.45824 0.80384-0.45696 1.37344-1.2544 1.71392-2.1696a4.17536 4.17536 0 0 0-0.34176-2.85696c-0.56832-0.9152-1.48352-1.6-2.28736-2.28736-38.85312-27.9936-78.6176-55.53536-121.92896-75.98976-14.39488-6.74176-29.25312-12.8-44.67584-16.56576-12.00128-2.97472-24.45568-4.576-36.79872-3.54432a90.42688 90.42688 0 0 0-31.19744 8.45312c-10.17216 4.9152-19.31008 11.77216-27.65312 19.42912-9.71392 8.91136-18.2848 18.96448-26.39744 29.36448-9.71392 12.34176-18.74304 25.25184-27.54176 38.39104"  horiz-adv-x="1024" />

    
    <glyph glyph-name="xiala" unicode="&#58971;" d="M268.658 305.89L486.222 543.8a34.238 34.238 0 0 0 25.718 11.637A34.238 34.238 0 0 0 537.66 543.8L755.223 305.89c10.621-11.218 13.903-27.568 8.414-42.009s-18.737-24.525-34.133-25.897H294.555c-15.455 1.313-28.761 11.337-34.251 25.838-5.55 14.5-2.268 30.79 8.354 42.068z"  horiz-adv-x="1024" />

    
    <glyph glyph-name="yemian" unicode="&#58753;" d="M562.805 815.3025a72.135 72.135 0 0 1-96.93 0L73.925 443.13a36.1575 36.1575 0 0 1 48.42-53.7075l6.2325 5.91750001V6.899999989999969a72.315 72.315 0 0 1 72.315-72.40499999h210.4425v217.71a50.9175 50.9175 0 0 0 50.94 50.985h99.0225a50.9175 50.9175 0 0 0 50.94-50.985v-217.71h215.4375a72.315 72.315 0 0 1 72.3375 72.40500001V390.5925c16.065-14.535 38.8575-13.4325 52.2225 1.4625a36.1575 36.1575 0 0 1-2.61 51.075L562.805 815.28z"  horiz-adv-x="1024" />

    


  </font>
</defs>
</svg>
